<svg xmlns="http://www.w3.org/2000/svg" width="15" height="3" viewBox="0 0 15 3" fill="none">
    <path fill-rule="evenodd" clip-rule="evenodd"
        d="M3 1.5C3 2.32843 2.32843 3 1.5 3C0.671573 3 0 2.32843 0 1.5C0 0.671573 0.671573 0 1.5 0C2.32843 0 3 0.671573 3 1.5ZM7.5 3C8.32843 3 9 2.32843 9 1.5C9 0.671573 8.32843 0 7.5 0C6.67157 0 6 0.671573 6 1.5C6 2.32843 6.67157 3 7.5 3ZM13.5 3C14.3284 3 15 2.32843 15 1.5C15 0.671573 14.3284 0 13.5 0C12.6716 0 12 0.671573 12 1.5C12 2.32843 12.6716 3 13.5 3Z"
        fill="#999999" />
</svg>