<svg width="40" height="40" viewBox="0 0 40 40" fill="none" xmlns="http://www.w3.org/2000/svg">
    <path d="M24 26.6667H16V28C16 30.2092 17.7909 32 20 32C22.2091 32 24 30.2092 24 28V26.6667Z"
        stroke="black" stroke-width="2" stroke-linecap="round" stroke-linejoin="round" />
    <path
        d="M10.6667 26.6666H29.3334C30.0698 26.6666 30.6667 26.0697 30.6667 25.3333V24.5522C30.6667 24.1986 30.5262 23.8595 30.2762 23.6094L29.5951 22.9283C29.4275 22.7607 29.3334 22.5335 29.3334 22.2965V17.3333C29.3334 12.1786 25.1547 7.99993 20 7.99994C14.8454 7.99995 10.6667 12.1786 10.6667 17.3333V22.2965C10.6667 22.5335 10.5726 22.7608 10.405 22.9283L9.7239 23.6094C9.47385 23.8595 9.33337 24.1986 9.33337 24.5522V25.3333C9.33337 26.0697 9.93033 26.6666 10.6667 26.6666Z"
        stroke="black" stroke-width="2" stroke-linecap="round" stroke-linejoin="round" />
</svg>
