<svg width="40" height="40" viewBox="0 0 40 40" fill="none" xmlns="http://www.w3.org/2000/svg">
    <path d="M26.6666 25.6368C29.7738 26.3689 32 28.3445 32 30.6666" stroke="black" stroke-width="2"
        stroke-linecap="round" stroke-linejoin="round" />
    <path d="M8 30.6666C8 27.7211 11.5817 25.3333 16 25.3333C20.4183 25.3333 24 27.7211 24 30.6666"
        stroke="black" stroke-width="2" stroke-linecap="round" stroke-linejoin="round" />
    <path
        d="M24 21.3334C26.9455 21.3334 29.3333 18.9455 29.3333 16C29.3333 13.0545 26.9455 10.6667 24 10.6667"
        stroke="black" stroke-width="2" stroke-linecap="round" stroke-linejoin="round" />
    <path
        d="M16 21.3334C18.9455 21.3334 21.3333 18.9455 21.3333 16C21.3333 13.0545 18.9455 10.6667 16 10.6667C13.0544 10.6667 10.6666 13.0545 10.6666 16C10.6666 18.9455 13.0544 21.3334 16 21.3334Z"
        stroke="black" stroke-width="2" stroke-linecap="round" stroke-linejoin="round" />
</svg>
