<svg xmlns="http://www.w3.org/2000/svg" width="18" height="19" viewBox="0 0 18 19" fill="none">
    <path fill-rule="evenodd" clip-rule="evenodd"
        d="M12.033 1.04198C11.762 0.517853 11.0991 0.340215 10.6024 0.658648L9.54067 1.33929C9.21117 1.55053 8.78882 1.55053 8.45931 1.33929L7.39762 0.658648C6.90091 0.340215 6.23796 0.517853 5.96701 1.04198L5.38788 2.16228C5.20814 2.50997 4.84238 2.72114 4.4514 2.70295L3.19163 2.64435C2.60225 2.61693 2.11693 3.10225 2.14435 3.69163L2.20295 4.9514C2.22114 5.34238 2.00997 5.70814 1.66228 5.88788L0.541978 6.46701C0.0178525 6.73796 -0.159785 7.40091 0.158648 7.89762L0.839287 8.95931C1.05053 9.28882 1.05053 9.71117 0.839287 10.0407L0.158648 11.1024C-0.159785 11.5991 0.0178531 12.262 0.541978 12.533L1.66228 13.1121C2.00997 13.2918 2.22114 13.6576 2.20295 14.0486L2.14435 15.3084C2.11693 15.8977 2.60225 16.3831 3.19163 16.3556L4.4514 16.297C4.84238 16.2788 5.20814 16.49 5.38788 16.8377L5.96701 17.958C6.23796 18.4821 6.90091 18.6598 7.39762 18.3413L8.45931 17.6607C8.78882 17.4495 9.21117 17.4495 9.54067 17.6607L10.6024 18.3413C11.0991 18.6598 11.762 18.4821 12.033 17.958L12.6121 16.8377C12.7918 16.49 13.1576 16.2788 13.5486 16.297L14.8084 16.3556C15.3977 16.3831 15.8831 15.8977 15.8556 15.3084L15.797 14.0486C15.7788 13.6576 15.99 13.2918 16.3377 13.1121L17.458 12.533C17.9821 12.262 18.1598 11.5991 17.8413 11.1024L17.1607 10.0407C16.9495 9.71117 16.9495 9.28882 17.1607 8.95932L17.8413 7.89762C18.1598 7.40091 17.9821 6.73796 17.458 6.46701L16.3377 5.88788C15.99 5.70814 15.7788 5.34238 15.797 4.9514L15.8556 3.69163C15.8831 3.10225 15.3977 2.61693 14.8084 2.64435L13.5486 2.70295C13.1576 2.72114 12.7918 2.50997 12.6121 2.16228L12.033 1.04198ZM12.5728 8.07282C12.8657 7.77992 12.8657 7.30505 12.5728 7.01216C12.2799 6.71926 11.805 6.71926 11.5121 7.01216L7.79245 10.7318L6.32278 9.26215C6.02989 8.96926 5.55501 8.96926 5.26212 9.26215C4.96923 9.55505 4.96923 10.0299 5.26212 10.3228L7.26212 12.3228C7.55501 12.6157 8.02988 12.6157 8.32278 12.3228L12.5728 8.07282Z"
        fill="#007AFF" />
</svg>